<svg data-name="Layer 1" xmlns="http://www.w3.org/2000/svg" width="1121" height="607.96"><path d="M166.65 398.69A92.17 92.17 0 01198.67 382c32.66-9.34 66.44-.3 99.12 8.45 17.64 4.72 35.87 9.6 53.86 11.61 28.83 3.23 55.7-1.27 77.7-13 24.72-13.19 42.54-35.88 47.64-60.7a70.48 70.48 0 001.29-9.52q-3.65 2.26-7.34 4.44c-25.8 15.33-62.08 29.66-88.32 10.88-10.08-7.2-16.61-19.25-17.94-33.04-1.42-14.77 3.34-29.5 12.72-39.4a48 48 0 014.9-4.5c19.01-15.18 49.03-16 70.08-1 17.83 12.7 28.39 35.65 28.05 58.93a524.84 524.84 0 0044.16-30.97l1.24 1.58a526.67 526.67 0 01-45.48 31.8 72.51 72.51 0 01-1.4 11.2c-5.22 25.4-23.42 48.6-48.66 62.06-22.36 11.93-49.63 16.5-78.86 13.23-18.14-2.02-36.45-6.93-54.16-11.67-33.9-9.07-65.92-17.65-98.05-8.46-32.29 9.24-58.37 37.58-64.9 70.53-6.54 32.94 6.75 69.1 33.07 89.95l-1.25 1.57c-26.89-21.32-40.47-58.25-33.79-91.91 4.32-21.76 16.98-41.55 34.3-55.37zm311.75-82.27c.76-23.08-9.55-46-27.18-58.57-22.19-15.81-54.65-13.46-72.37 5.24-8.99 9.49-13.54 23.63-12.18 37.84 1.27 13.22 7.5 24.74 17.11 31.6 25.37 18.16 60.85 4.06 86.14-10.97q4.26-2.52 8.48-5.14z" fill="#3f3d56"/><ellipse cx="278.5" cy="555.96" rx="278.5" ry="13" fill="#3f3d56"/><ellipse cx="268" cy="594.96" rx="99" ry="13" fill="#3f3d56"/><path d="M185.5 283.46v8s-9.02 41.83 5 40c23-3 6-37 6-37v-7zM297.5 508.46l9 25 22-8-10-23-21 6zM242.5 533.46l-6 22 23 7 1-23-18-6z" fill="#ffb8b8"/><path d="M222.5 281.46l-2 11s-1 8 0 13 73 212 73 212l31-12-40-131-5-101z" fill="#2f2e41"/><path d="M261.5 279.46l-4 148s-9 10-7 17-5 65-5 65l-6 29 26 8s5-26 9-29 27-93 27-99 17-139 17-139l-42-17z" fill="#2f2e41"/><path d="M308.5 517.46s-11-12-17 0a242.99 242.99 0 01-15 25s-32 19 0 24c0 0 18 1 27-5s33-15 33-17-6-31.4-12-28.2-16 1.2-16 1.2z" fill="#2f2e41"/><path d="M253.5 550.46s-9-13-17-4-18 35-18 35-18 27 10 26 30-11 30-11 4-26 4-27-2-11.28-2-11.28z" fill="#2f2e41"/><circle cx="247" cy="45.96" r="28" fill="#ffb8b8"/><path d="M232.5 63.46l4 32 12 30 26-31v-15s-8-12-6-22z" fill="#ffb8b8"/><path d="M246.5 102.46l-14-6-15 177 3 11s8 5 33 1 66-1 66-1l3-91-49-107z" fill="#d0cde1"/><path d="M221.5 277.46s19-165 18-168-18-11.12-18-11.12-29 19.12-28 26.12 19 155 19 155zM297.5 265.46s-30-117-31-143-1-29-1-29 46-16 62 0l3 84s5 36 3 47a123.85 123.85 0 01-6 21s11 11 1 14-17-2-21 3-10 3-10 3z" fill="#575a89"/><path d="M200.5 118.46s-12 0-11 14 0 79 0 79-9 55-6 59-1 17-1 17l18 4s2-14 6-15 10-30 10-30z" fill="#575a89"/><path d="M335.5 241.46l-4.6 8.35s-31.49 25.08-15.94 34.37 30.54-24.72 30.54-24.72l5-9z" fill="#ffb8b8"/><path d="M313.5 91.46l14 2s16 11 17 17 33 61 33 61a32.55 32.55 0 013 13c0 7-11 60-17 61s-10 11-10 11l-21-13a51.04 51.04 0 011-9c1-5 5-15 5-15l6-21a7.5 7.5 0 01-3-6c0-4-17-25-17-25z" fill="#575a89"/><path d="M243.38 112.67s-25.88-7.2-23.88-12.2 4-6 4-6 3-8 6-8 5.57-2.46 5.57-2.46l11.43 18.45zM271.51 73.96s9.99-2.5 13.99.5 7 3 8 5 14 4 10 7-57 16-57 16l25-18z" fill="#d0cde1"/><path d="M274.64 16.17A34.51 34.51 0 00255 1.16l-6 4.8 2.33-5.6a31.77 31.77 0 00-5.93-.34L240 6.96l2.24-6.7a34.18 34.18 0 00-23.59 14.02c-6.87 9.91-6.41 23.7.35 33.68 1.86-5.7 2.49-11.05 4.34-16.75a16.88 16.88 0 004.4.02l2.26-5.27.63 5.05c7-.61 17.38-1.95 24.02-3.18l-.65-3.87 3.86 3.22c2.03-.47 3.24-.9 3.14-1.22 4.93 7.96 9.82 13.04 14.76 21 1.87-11.23 5.18-20.55-1.12-30.8z" fill="#2f2e41"/><ellipse cx="273" cy="41.96" rx="2" ry="4" fill="#ffb8b8"/><path d="M104.22 555.7l-1.07-.4c-.24-.1-23.71-9.1-34.7-29.48-11-20.4-5.62-44.95-5.56-45.2l.25-1.11 1.07.4c.24.09 23.71 9.08 34.7 29.47 11 20.4 5.62 44.95 5.56 45.2zM70.2 524.86c9.3 17.24 27.85 26.08 32.55 28.1.9-5.04 3.7-25.41-5.6-42.64-9.28-17.22-27.84-26.07-32.54-28.1-.9 5.05-3.7 25.41 5.6 42.64z" fill="#3f3d56"/><path d="M76.85 518.66c19.76 11.9 27.37 35.5 27.37 35.5s-24.43 4.35-44.2-7.54-27.36-35.5-27.36-35.5 24.43-4.34 44.19 7.54z" fill="#21e6c1"/><path d="M507 296.8h457.18c86.61 0 156.82-49.36 156.82-135.97 0-86.6-70.2-122.7-156.82-122.7H820.63C647.42 38.12 507 123.58 507 296.8z" fill="#3f3d56"/><path d="M938.66 275.82h-380.5v-1c0-68.02 26.51-124.07 76.66-162.07 46.3-35.1 110.16-53.65 184.68-53.65h119.16c38 0 70.03 8.35 92.62 24.15 25.58 17.9 38.55 44.38 38.55 78.7 0 34.51-13.3 63.61-38.5 84.17-23.45 19.15-56.36 29.7-92.67 29.7zm-378.49-2h378.5c77.25 0 129.16-44.95 129.16-111.86 0-64.1-47.08-100.86-129.17-100.86H819.5c-125.1 0-258.76 55.92-259.33 212.72z" fill="#21e6c1"/><path fill="#21e6c1" d="M701 125.96h54v13h-54zM923 125.96h19v13h-19zM961 125.96h19v13h-19zM774 125.96h129v13H774zM633 209.96h54v13h-54zM855 209.96h19v13h-19zM893 209.96h19v13h-19zM706 209.96h129v13H706zM856 154.96h54v13h-54zM929 154.96h54v13h-54zM1002 154.96h19v13h-19zM633 154.96h19v13h-19zM671 154.96h19v13h-19zM709 154.96h129v13H709zM798 195.96h-54v-13h54zM725 195.96h-54v-13h54zM652 195.96h-19v-13h19zM1021 195.96h-19v-13h19zM983 195.96h-19v-13h19zM945 195.96H816v-13h129zM152 536.96h19v15h-19zM309 580.96h19v15h-19z"/></svg>